<svg width="26" height="23" viewBox="0 0 26 23" fill="none" xmlns="http://www.w3.org/2000/svg">
<path d="M14.8602 22.1497C13.8223 23.2312 12.1347 23.2312 11.0965 22.1497C7.98166 18.819 2.01164 12.4596 2.01164 12.4159C-0.670546 9.60395 -0.670546 4.97502 2.01164 2.16305C3.30947 0.778699 5.03991 0.0432612 6.90014 0.0432612C8.76036 0.0432612 10.4908 0.778699 11.7886 2.16305L12.3078 2.81197C12.6539 3.24458 13.346 3.24458 13.6921 2.81197L14.1247 2.24957C14.168 2.20631 14.168 2.20631 14.2113 2.16305C15.5528 0.735438 17.2832 0 19.0998 0C20.9604 0 22.6909 0.735438 23.9887 2.11979C26.6704 4.93176 26.6704 9.56069 23.9887 12.3727C23.945 12.4592 18.0182 18.8186 14.8602 22.1497Z" fill="white" fill-opacity="0.26"/>
</svg>
