<svg width="24" height="18" viewBox="0 0 24 18" fill="none" xmlns="http://www.w3.org/2000/svg">
<path fill-rule="evenodd" clip-rule="evenodd" d="M3.23082e-09 2.21906C3.23082e-09 1.63053 0.233794 1.0661 0.649949 0.649949C1.0661 0.233794 1.63053 0 2.21906 0H15.5335C16.122 0 16.6864 0.233794 17.1026 0.649949C17.5187 1.0661 17.7525 1.63053 17.7525 2.21906V4.43813H19.2615C19.594 4.43843 19.9221 4.51343 20.2217 4.65759C20.5213 4.80175 20.7847 5.01139 20.9924 5.27102L23.1833 8.00787C23.4985 8.40165 23.6702 8.89109 23.67 9.39552V12.5747C23.67 13.1632 23.4362 13.7277 23.0201 14.1438C22.6039 14.56 22.0395 14.7938 21.451 14.7938H20.7113C20.7113 15.5785 20.3995 16.331 19.8447 16.8859C19.2898 17.4408 18.5372 17.7525 17.7525 17.7525C16.9678 17.7525 16.2152 17.4408 15.6604 16.8859C15.1055 16.331 14.7938 15.5785 14.7938 14.7938H7.39688C7.39773 15.1881 7.31973 15.5787 7.16746 15.9425C7.0152 16.3063 6.79173 16.636 6.51022 16.9122C6.2287 17.1884 5.8948 17.4055 5.52816 17.5508C5.16152 17.6961 4.76954 17.7666 4.37525 17.7582C3.98096 17.7499 3.59232 17.6627 3.23219 17.502C2.87205 17.3412 2.54769 17.1101 2.27816 16.8222C2.00864 16.5343 1.79939 16.1954 1.66272 15.8255C1.52605 15.4555 1.46472 15.062 1.48234 14.668C1.04895 14.5155 0.673594 14.2322 0.408078 13.8572C0.142561 13.4823 -2.47825e-05 13.0341 3.23082e-09 12.5747L3.23082e-09 2.21906ZM1.91431 13.2493C2.18179 12.8114 2.5586 12.4506 3.00772 12.2024C3.45684 11.9543 3.96281 11.8272 4.47589 11.8338C4.98898 11.8403 5.49153 11.9803 5.93415 12.2399C6.37677 12.4995 6.74423 12.8698 7.00041 13.3144H15.1902C15.4505 12.8651 15.8238 12.4917 16.2731 12.2315V2.21906C16.2731 2.02289 16.1952 1.83474 16.0565 1.69603C15.9178 1.55731 15.7296 1.47938 15.5335 1.47938H2.21906C2.02289 1.47938 1.83474 1.55731 1.69603 1.69603C1.55731 1.83474 1.47938 2.02289 1.47938 2.21906V12.5747C1.47926 12.7171 1.52024 12.8565 1.59739 12.9761C1.67454 13.0958 1.78458 13.1906 1.91431 13.2493ZM17.7525 11.835C18.2719 11.835 18.7821 11.9717 19.2319 12.2314C19.6816 12.4911 20.0551 12.8646 20.3148 13.3144H21.451C21.6471 13.3144 21.8353 13.2365 21.974 13.0977C22.1127 12.959 22.1906 12.7709 22.1906 12.5747V9.39404C22.1903 9.22618 22.133 9.06341 22.0279 8.93248L19.8384 6.19563C19.7693 6.109 19.6815 6.03902 19.5816 5.99088C19.4818 5.94274 19.3723 5.91766 19.2615 5.91751H17.7525V11.835ZM4.43813 13.3144C4.04577 13.3144 3.66949 13.4703 3.39205 13.7477C3.11462 14.0251 2.95875 14.4014 2.95875 14.7938C2.95875 15.1861 3.11462 15.5624 3.39205 15.8398C3.66949 16.1173 4.04577 16.2731 4.43813 16.2731C4.83048 16.2731 5.20677 16.1173 5.48421 15.8398C5.76164 15.5624 5.91751 15.1861 5.91751 14.7938C5.91751 14.4014 5.76164 14.0251 5.48421 13.7477C5.20677 13.4703 4.83048 13.3144 4.43813 13.3144ZM17.7525 13.3144C17.3602 13.3144 16.9839 13.4703 16.7064 13.7477C16.429 14.0251 16.2731 14.4014 16.2731 14.7938C16.2731 15.1861 16.429 15.5624 16.7064 15.8398C16.9839 16.1173 17.3602 16.2731 17.7525 16.2731C18.1449 16.2731 18.5212 16.1173 18.7986 15.8398C19.076 15.5624 19.2319 15.1861 19.2319 14.7938C19.2319 14.4014 19.076 14.0251 18.7986 13.7477C18.5212 13.4703 18.1449 13.3144 17.7525 13.3144Z" fill="white"/>
</svg>
