<svg width="34" height="34" viewBox="0 0 34 34" fill="none" xmlns="http://www.w3.org/2000/svg">
<path d="M23.6106 11.6339C23.4649 11.2565 23.2418 10.9138 22.9556 10.6279C22.6694 10.342 22.3264 10.1192 21.9489 9.97391C21.429 9.78137 20.88 9.6796 20.3256 9.67305C19.4038 9.63107 19.1275 9.62057 16.7923 9.62057C14.4571 9.62057 14.1807 9.63107 13.2589 9.67305C12.704 9.6794 12.1543 9.78117 11.6339 9.97391C11.2565 10.1196 10.9138 10.3428 10.6279 10.629C10.342 10.9152 10.1192 11.2581 9.97392 11.6356C9.78137 12.1555 9.6796 12.7046 9.67305 13.2589C9.63107 14.1807 9.62058 14.4571 9.62058 16.7923C9.62058 19.1274 9.63107 19.4038 9.67305 20.3256C9.6794 20.8806 9.78118 21.4302 9.97392 21.9506C10.1196 22.328 10.3428 22.6707 10.629 22.9566C10.9152 23.2425 11.2581 23.4653 11.6356 23.6106C12.1555 23.8032 12.7046 23.9049 13.2589 23.9115C14.1807 23.9535 14.4571 23.9622 16.7923 23.9622C19.1275 23.9622 19.4038 23.9535 20.3256 23.9097C20.8805 23.9039 21.4301 23.8028 21.9506 23.6106C22.328 23.4649 22.6707 23.2418 22.9566 22.9556C23.2425 22.6694 23.4653 22.3264 23.6106 21.9489C23.8032 21.429 23.9049 20.88 23.9115 20.3256C23.9535 19.4038 23.9622 19.1274 23.9622 16.7923C23.9622 14.4571 23.9535 14.1807 23.9097 13.2589C23.904 12.7041 23.8028 12.1544 23.6106 11.6339ZM16.7923 21.2842C15.9039 21.2842 15.0354 21.0208 14.2967 20.5272C13.558 20.0336 12.9823 19.332 12.6423 18.5113C12.3023 17.6905 12.2133 16.7873 12.3867 15.9159C12.56 15.0446 12.9878 14.2442 13.616 13.616C14.2442 12.9878 15.0446 12.56 15.9159 12.3866C16.7873 12.2133 17.6905 12.3023 18.5113 12.6423C19.3321 12.9822 20.0336 13.558 20.5272 14.2967C21.0208 15.0354 21.2842 15.9038 21.2842 16.7923C21.2842 17.9836 20.811 19.1261 19.9686 19.9685C19.1262 20.8109 17.9836 21.2842 16.7923 21.2842ZM21.4609 13.1732C21.2533 13.1732 21.0504 13.1116 20.8778 12.9963C20.7052 12.881 20.5707 12.7171 20.4912 12.5253C20.4118 12.3335 20.391 12.1225 20.4315 11.9189C20.472 11.7153 20.572 11.5283 20.7188 11.3815C20.8655 11.2348 21.0525 11.1348 21.2561 11.0943C21.4597 11.0538 21.6707 11.0746 21.8625 11.154C22.0543 11.2335 22.2182 11.368 22.3335 11.5406C22.4488 11.7132 22.5104 11.9161 22.5104 12.1237C22.5104 12.402 22.3998 12.669 22.203 12.8658C22.0062 13.0626 21.7392 13.1732 21.4609 13.1732ZM19.7082 16.7923C19.7082 17.369 19.5372 17.9327 19.2168 18.4123C18.8964 18.8918 18.441 19.2655 17.9081 19.4862C17.3753 19.7069 16.789 19.7647 16.2234 19.6521C15.6578 19.5396 15.1382 19.2619 14.7304 18.8541C14.3226 18.4463 14.0449 17.9268 13.9324 17.3611C13.8199 16.7955 13.8776 16.2092 14.0983 15.6764C14.319 15.1436 14.6928 14.6882 15.1723 14.3678C15.6518 14.0474 16.2156 13.8764 16.7923 13.8764C17.5656 13.8764 18.3073 14.1836 18.8541 14.7304C19.401 15.2772 19.7082 16.0189 19.7082 16.7923ZM16.7923 0C13.4711 0 10.2245 0.984849 7.46299 2.83001C4.70152 4.67517 2.54921 7.29776 1.27824 10.3661C0.00727579 13.4345 -0.325267 16.8109 0.322666 20.0683C0.9706 23.3257 2.56991 26.3178 4.91835 28.6662C7.26679 31.0146 10.2589 32.6139 13.5163 33.2619C16.7736 33.9098 20.15 33.5773 23.2184 32.3063C26.2868 31.0353 28.9094 28.883 30.7545 26.1216C32.5997 23.3601 33.5845 20.1135 33.5845 16.7923C33.5845 12.3387 31.8154 8.0675 28.6662 4.91834C25.517 1.76918 21.2459 0 16.7923 0V0ZM25.4858 20.3974C25.471 21.1232 25.3332 21.8412 25.0782 22.5209C24.8536 23.1017 24.5101 23.6293 24.0697 24.0697C23.6293 24.51 23.1018 24.8536 22.5209 25.0782C21.8417 25.333 21.1243 25.4708 20.3991 25.4858C19.465 25.5277 19.1677 25.5382 16.7923 25.5382C14.4169 25.5382 14.1195 25.5277 13.1854 25.4858C12.4602 25.4708 11.7428 25.333 11.0637 25.0782C10.4828 24.8536 9.95526 24.51 9.51488 24.0697C9.0745 23.6293 8.73098 23.1017 8.50634 22.5209C8.25159 21.8417 8.11378 21.1243 8.09878 20.3991C8.0568 19.465 8.0463 19.1677 8.0463 16.7923C8.0463 14.4169 8.0568 14.1195 8.09878 13.1854C8.11322 12.4603 8.25044 11.7429 8.50459 11.0637C8.72922 10.4823 9.07292 9.95432 9.51362 9.51361C9.95432 9.07291 10.4823 8.72921 11.0637 8.50458C11.7429 8.25043 12.4603 8.11322 13.1854 8.09877C14.1195 8.05679 14.4169 8.04629 16.7923 8.04629C19.1677 8.04629 19.465 8.05679 20.3991 8.09877C21.1242 8.11322 21.8416 8.25043 22.5209 8.50458C23.1019 8.72942 23.6296 9.0732 24.07 9.5139C24.5103 9.95459 24.8538 10.4825 25.0782 11.0637C25.333 11.7428 25.4708 12.4602 25.4858 13.1854C25.5278 14.1195 25.5382 14.4169 25.5382 16.7923C25.5382 19.1677 25.5278 19.465 25.4858 20.3991V20.3974Z" fill="white"/>
</svg>
