<svg width="20" height="17" viewBox="0 0 20 17" fill="none" xmlns="http://www.w3.org/2000/svg">
<path d="M1 2.09569C1 1.49056 1.49056 1 2.09569 1H17.4353C18.0404 1 18.531 1.49056 18.531 2.09569C18.531 2.70081 18.0404 3.19137 17.4353 3.19137H2.09569C1.49056 3.19137 1 2.70081 1 2.09569Z" fill="white" stroke="white"/>
<path d="M1 15.2439C1 14.6388 1.49056 14.1483 2.09569 14.1483H17.4353C18.0404 14.1483 18.531 14.6388 18.531 15.2439C18.531 15.8491 18.0404 16.3396 17.4353 16.3396H2.09569C1.49056 16.3396 1 15.8491 1 15.2439Z" fill="white" stroke="white"/>
<path d="M2.09568 7.5741C1.49056 7.5741 1 8.06463 1 8.66978C1 9.27493 1.49056 9.76547 2.09568 9.76547H10.8612C11.4663 9.76547 11.9568 9.27493 11.9568 8.66978C11.9568 8.06463 11.4663 7.5741 10.8612 7.5741H2.09568Z" fill="white" stroke="white"/>
</svg>
