<svg width="34" height="34" viewBox="0 0 34 34" fill="none" xmlns="http://www.w3.org/2000/svg">
<path d="M16.7923 0C7.51904 0 0 7.51904 0 16.7923C0 26.0655 7.51904 33.5845 16.7923 33.5845C26.0655 33.5845 33.5845 26.0655 33.5845 16.7923C33.5845 7.51904 26.0655 0 16.7923 0ZM24.8623 12.6579C24.8736 12.8341 24.8735 13.0178 24.8735 13.1977C24.8735 18.7001 20.683 25.0385 13.0253 25.0385C10.6638 25.0385 8.47485 24.3525 6.6307 23.1718C6.96804 23.2093 7.29039 23.2243 7.63524 23.2243C9.58434 23.2243 11.376 22.5646 12.8041 21.4476C10.9749 21.4101 9.43816 20.2107 8.9134 18.5615C9.55435 18.6552 10.1316 18.6552 10.7913 18.4865C9.84944 18.2951 9.00289 17.7836 8.39545 17.0388C7.78801 16.2941 7.45714 15.362 7.45907 14.4009V14.3484C8.01006 14.6595 8.65851 14.8507 9.33695 14.8769C8.76662 14.4968 8.2989 13.9819 7.97525 13.3777C7.65159 12.7736 7.48202 12.0989 7.48156 11.4135C7.48156 10.6376 7.68396 9.92918 8.04755 9.31446C9.09295 10.6014 10.3975 11.6539 11.8763 12.4037C13.3551 13.1534 14.9751 13.5836 16.6311 13.6662C16.0426 10.8363 18.1566 8.54607 20.698 8.54607C21.8974 8.54607 22.9769 9.04834 23.7378 9.85796C24.6786 9.68179 25.5782 9.32946 26.3804 8.85717C26.0693 9.82048 25.417 10.6339 24.5512 11.1474C25.3908 11.0574 26.2004 10.825 26.9501 10.4989C26.3841 11.331 25.6757 12.0694 24.8623 12.6579Z" fill="white"/>
</svg>
