<svg width="34" height="34" viewBox="0 0 34 34" fill="none" xmlns="http://www.w3.org/2000/svg">
<path d="M19.5962 16.5002L15.6675 14.667C15.3247 14.5078 15.0431 14.6862 15.0431 15.0658V18.5187C15.0431 18.8983 15.3247 19.0767 15.6675 18.9175L19.5945 17.0844C19.9391 16.9235 19.9391 16.6611 19.5962 16.5002ZM16.7923 0C7.51804 0 0 7.51804 0 16.7923C0 26.0665 7.51804 33.5845 16.7923 33.5845C26.0665 33.5845 33.5845 26.0665 33.5845 16.7923C33.5845 7.51804 26.0665 0 16.7923 0ZM16.7923 23.6141C8.19673 23.6141 8.0463 22.8392 8.0463 16.7923C8.0463 10.7453 8.19673 9.97041 16.7923 9.97041C25.3878 9.97041 25.5382 10.7453 25.5382 16.7923C25.5382 22.8392 25.3878 23.6141 16.7923 23.6141Z" fill="white"/>
</svg>
